<svg xmlns="http://www.w3.org/2000/svg" viewBox="0 0 64 64" fill="none">
  <rect width="64" height="64" rx="8" fill="#00E599"/>
  <path d="M16 48V20c0-2.2 1.8-4 4-4h8l8 8v24c0 2.2-1.8 4-4 4h-12c-2.2 0-4-1.8-4-4z" fill="#0A0A0A"/>
  <path d="M28 16l8 8h-4c-2.2 0-4-1.8-4-4v-4z" fill="#00E599"/>
  <path d="M36 32h8c2.2 0 4 1.8 4 4v12c0 2.2-1.8 4-4 4h-8" stroke="#0A0A0A" stroke-width="3" stroke-linecap="round"/>
  <circle cx="32" cy="38" r="3" fill="#00E599"/>
  <path d="M22 28h8M22 34h12M22 40h8" stroke="#00E599" stroke-width="2" stroke-linecap="round"/>
</svg>
